<svg width="30" height="24" viewBox="0 0 30 24" fill="none" xmlns="http://www.w3.org/2000/svg">
<g id="Bell_light">
<path id="Rectangle 1" d="M7.87843 10.134C8.37829 6.58456 11.4155 3.94507 15 3.94507V3.94507C18.5845 3.94507 21.6217 6.58457 22.1216 10.134L22.2115 10.7723C22.4007 12.1158 22.9312 13.3883 23.7525 14.4682L24.4069 15.3287C24.9391 16.0286 25.2053 16.3786 25.2297 16.6685C25.2609 17.0393 25.0837 17.3968 24.7696 17.5964C24.5241 17.7524 24.0844 17.7524 23.2051 17.7524H6.79491C5.91557 17.7524 5.4759 17.7524 5.23041 17.5964C4.91633 17.3968 4.73906 17.0393 4.7703 16.6685C4.79472 16.3786 5.06086 16.0286 5.59314 15.3287L6.2475 14.4682C7.06876 13.3883 7.59935 12.1158 7.78855 10.7723L7.87843 10.134Z" stroke="#222222"/>
<path id="Ellipse 45" d="M11.3778 18.1525C11.5914 18.8865 12.0622 19.535 12.7171 19.9976C13.3721 20.4602 14.1745 20.7109 15 20.7109C15.8255 20.7109 16.6279 20.4602 17.2829 19.9976C17.9378 19.5351 18.4086 18.8865 18.6222 18.1525" stroke="#222222" stroke-linecap="round"/>
</g>
</svg>
