<svg width="28" height="25" viewBox="0 0 28 25" fill="none" xmlns="http://www.w3.org/2000/svg">
<path d="M1.32698 2.63803L1.77248 2.86502L1.32698 2.63803ZM1.72 23.46L2.02 23.86L1.72 23.46ZM25.362 17.673L25.135 17.2275L25.362 17.673ZM26.673 16.362L27.1185 16.589L26.673 16.362ZM26.673 2.63803L27.1185 2.41103V2.41103L26.673 2.63803ZM25.362 1.32698L25.135 1.77248V1.77248L25.362 1.32698ZM2.63803 1.32698L2.86502 1.77248L2.63803 1.32698ZM8.5 18.5C8.5 18.2239 8.27614 18 8 18C7.72386 18 7.5 18.2239 7.5 18.5H8.5ZM7.8 18.9L7.5 18.5L7.8 18.9ZM1.5 5.8C1.5 4.95167 1.50039 4.34549 1.53921 3.87032C1.57756 3.40099 1.65089 3.10366 1.77248 2.86502L0.881477 2.41103C0.676087 2.81413 0.585932 3.25771 0.542533 3.78889C0.499611 4.31423 0.5 4.96817 0.5 5.8H1.5ZM1.5 10V5.8H0.5V10H1.5ZM0.5 10V18H1.5V10H0.5ZM0.5 18V18.75H1.5V18H0.5ZM0.5 18.75V23.1H1.5V18.75H0.5ZM0.5 23.1C0.5 23.8828 1.39373 24.3297 2.02 23.86L1.42 23.06C1.42413 23.0569 1.43451 23.0519 1.44773 23.051C1.45893 23.0502 1.46707 23.0526 1.47236 23.0553C1.47765 23.0579 1.48449 23.063 1.49059 23.0724C1.49779 23.0835 1.5 23.0948 1.5 23.1H0.5ZM2.02 23.86L8.1 19.3L7.5 18.5L1.42 23.06L2.02 23.86ZM22.2 17.5H8.5V18.5H22.2V17.5ZM25.135 17.2275C24.8963 17.3491 24.599 17.4224 24.1297 17.4608C23.6545 17.4996 23.0483 17.5 22.2 17.5V18.5C23.0318 18.5 23.6858 18.5004 24.2111 18.4575C24.7423 18.4141 25.1859 18.3239 25.589 18.1185L25.135 17.2275ZM26.2275 16.135C25.9878 16.6054 25.6054 16.9878 25.135 17.2275L25.589 18.1185C26.2475 17.783 26.783 17.2475 27.1185 16.589L26.2275 16.135ZM26.5 13.2C26.5 14.0483 26.4996 14.6545 26.4608 15.1297C26.4224 15.599 26.3491 15.8963 26.2275 16.135L27.1185 16.589C27.3239 16.1859 27.4141 15.7423 27.4575 15.2111C27.5004 14.6858 27.5 14.0318 27.5 13.2H26.5ZM26.5 5.8V13.2H27.5V5.8H26.5ZM26.2275 2.86502C26.3491 3.10366 26.4224 3.40099 26.4608 3.87032C26.4996 4.34549 26.5 4.95167 26.5 5.8H27.5C27.5 4.96817 27.5004 4.31423 27.4575 3.78889C27.4141 3.25771 27.3239 2.81413 27.1185 2.41103L26.2275 2.86502ZM25.135 1.77248C25.6054 2.01217 25.9878 2.39462 26.2275 2.86502L27.1185 2.41103C26.783 1.75247 26.2475 1.21703 25.589 0.881477L25.135 1.77248ZM22.2 1.5C23.0483 1.5 23.6545 1.50039 24.1297 1.53921C24.599 1.57756 24.8963 1.65089 25.135 1.77248L25.589 0.881477C25.1859 0.676087 24.7423 0.585932 24.2111 0.542533C23.6858 0.499611 23.0318 0.5 22.2 0.5V1.5ZM5.8 1.5H22.2V0.5H5.8V1.5ZM2.86502 1.77248C3.10366 1.65089 3.40099 1.57756 3.87032 1.53921C4.34549 1.50039 4.95167 1.5 5.8 1.5V0.5C4.96817 0.5 4.31423 0.499611 3.78889 0.542533C3.25771 0.585932 2.81413 0.676087 2.41103 0.881477L2.86502 1.77248ZM1.77248 2.86502C2.01217 2.39462 2.39462 2.01217 2.86502 1.77248L2.41103 0.881477C1.75247 1.21703 1.21703 1.75247 0.881477 2.41103L1.77248 2.86502ZM8.5 18.5V17.5C7.94772 17.5 7.5 17.9477 7.5 18.5H8.5ZM8.1 19.3C8.35181 19.1111 8.5 18.8148 8.5 18.5H7.5L8.1 19.3Z" fill="#222222"/>
<path d="M7 6L20 6M7 13H16.2857" stroke="black" stroke-opacity="0.25" stroke-linecap="round" stroke-linejoin="round"/>
</svg>
