<svg width="28" height="26" viewBox="0 0 28 26" fill="none" xmlns="http://www.w3.org/2000/svg">
<g id="Group_light">
<path id="Ellipse 46" d="M17 8.66675C17 10.1513 15.6924 11.4167 14 11.4167C12.3076 11.4167 11 10.1513 11 8.66675C11 7.18221 12.3076 5.91675 14 5.91675C15.6924 5.91675 17 7.18221 17 8.66675Z" stroke="#222222" stroke-linecap="round"/>
<path id="Ellipse 47" d="M15.982 7.03492C16.2163 6.65804 16.5695 6.34848 17.0015 6.15065C17.4337 5.95273 17.9219 5.87737 18.4033 5.93622C18.8847 5.99507 19.3323 6.18475 19.6907 6.47656C20.0486 6.76806 20.3002 7.14714 20.4202 7.56274C20.54 7.97787 20.5247 8.4161 20.3756 8.82398C20.2263 9.23238 19.9477 9.59652 19.5687 9.86654C19.1894 10.1368 18.7284 10.299 18.2437 10.3285C17.7589 10.358 17.2776 10.2531 16.8612 10.0299" stroke="#222222"/>
<path id="Ellipse 49" d="M12.018 7.03492C11.7837 6.65804 11.4305 6.34848 10.9985 6.15065C10.5663 5.95273 10.0781 5.87737 9.59668 5.93622C9.11533 5.99507 8.66768 6.18475 8.30934 6.47656C7.95137 6.76806 7.69975 7.14714 7.57982 7.56274C7.46003 7.97787 7.47533 8.4161 7.62443 8.82398C7.77373 9.23238 8.05234 9.59652 8.4313 9.86654C8.81059 10.1368 9.27159 10.299 9.75632 10.3285C10.2411 10.358 10.7224 10.2531 11.1388 10.0299" stroke="#222222"/>
<path id="Rectangle 4160" d="M14 13.5417C18.8319 13.5417 20.0253 17.2275 20.32 19.0481C20.4083 19.5933 19.969 20.0417 19.4167 20.0417H8.58337C8.03109 20.0417 7.59178 19.5933 7.68004 19.0481C7.97477 17.2275 9.16814 13.5417 14 13.5417Z" stroke="#222222" stroke-linecap="round"/>
<path id="Subtract" d="M22.5348 16.7845L22.051 16.9105L22.5348 16.7845ZM15.2683 13.6347L14.9118 13.2841L14.2276 13.98L15.1921 14.1288L15.2683 13.6347ZM20.0449 17.8749L19.5675 18.0236L19.677 18.3749H20.0449V17.8749ZM18.0834 12.9583C19.3521 12.9583 20.2276 13.5472 20.8523 14.3381C21.4889 15.1442 21.853 16.1499 22.051 16.9105L23.0187 16.6586C22.8049 15.8373 22.3965 14.6799 21.637 13.7183C20.8655 12.7415 19.7212 11.9583 18.0834 11.9583V12.9583ZM15.6248 13.9852C16.2175 13.3824 17.0052 12.9583 18.0834 12.9583V11.9583C16.7038 11.9583 15.6678 12.5152 14.9118 13.2841L15.6248 13.9852ZM15.1921 14.1288C17.9364 14.5523 19.0781 16.4527 19.5675 18.0236L20.5223 17.7262C19.9697 15.9526 18.609 13.6442 15.3446 13.1405L15.1921 14.1288ZM21.6365 17.3749H20.0449V18.3749H21.6365V17.3749ZM22.051 16.9105C22.107 17.1259 21.9502 17.3749 21.6365 17.3749V18.3749C22.5122 18.3749 23.2622 17.5941 23.0187 16.6586L22.051 16.9105Z" fill="#222222"/>
<path id="Subtract_2" d="M12.7317 13.6347L12.8079 14.1288L13.7724 13.98L13.0882 13.2841L12.7317 13.6347ZM5.46513 16.7845L4.98126 16.6585H4.98126L5.46513 16.7845ZM7.95509 17.8749V18.3749H8.32302L8.43246 18.0236L7.95509 17.8749ZM9.91662 12.9583C10.9948 12.9583 11.7824 13.3824 12.3751 13.9852L13.0882 13.2841C12.3322 12.5152 11.2961 11.9583 9.91662 11.9583V12.9583ZM5.94901 16.9105C6.147 16.1498 6.51105 15.1442 7.14773 14.3381C7.77243 13.5472 8.6479 12.9583 9.91662 12.9583V11.9583C8.27884 11.9583 7.13445 12.7415 6.36298 13.7183C5.60348 14.6798 5.19504 15.8373 4.98126 16.6585L5.94901 16.9105ZM6.36343 17.3749C6.0498 17.3749 5.89294 17.1259 5.94901 16.9105L4.98126 16.6585C4.73773 17.5941 5.48774 18.3749 6.36343 18.3749V17.3749ZM7.95509 17.3749H6.36343V18.3749H7.95509V17.3749ZM8.43246 18.0236C8.92192 16.4527 10.0636 14.5523 12.8079 14.1288L12.6554 13.1405C9.39097 13.6442 8.03032 15.9526 7.47773 17.7262L8.43246 18.0236Z" fill="#222222"/>
</g>
</svg>
