<svg width="30" height="26" viewBox="0 0 30 26" fill="none" xmlns="http://www.w3.org/2000/svg">
<g id="Home_light">
<path id="Rectangle 1" d="M6.25 13.8228C6.25 12.3519 6.25 11.6165 6.59308 10.97C6.93615 10.3236 7.58046 9.84493 8.86906 8.88768L10.1191 7.9591C12.4482 6.22888 13.6128 5.36377 15 5.36377C16.3872 5.36377 17.5518 6.22888 19.8809 7.9591L21.1309 8.88768C22.4195 9.84493 23.0638 10.3236 23.4069 10.97C23.75 11.6165 23.75 12.3519 23.75 13.8228V18.4166C23.75 20.4594 23.75 21.4807 23.0178 22.1153C22.2855 22.7499 21.107 22.7499 18.75 22.7499H11.25C8.89298 22.7499 7.71447 22.7499 6.98223 22.1153C6.25 21.4807 6.25 20.4594 6.25 18.4166V13.8228Z" stroke="#222222"/>
<path id="Vector 3" d="M18.125 22.75V17.25C18.125 16.6977 17.6773 16.25 17.125 16.25H12.875C12.3227 16.25 11.875 16.6977 11.875 17.25V22.75" stroke="#222222" stroke-linecap="round" stroke-linejoin="round"/>
</g>
</svg>
