<svg width="31" height="25" viewBox="0 0 31 25" fill="none" xmlns="http://www.w3.org/2000/svg">
<g id="crear post fade/Setting_line_duotone_line">
<path id="Subtract" d="M17.8161 3.59068L18.3125 3.53036L18.3093 3.50458L18.3036 3.47927L17.8161 3.59068ZM17.8161 3.59067L17.3198 3.651L17.3229 3.67677L17.3287 3.70208L17.8161 3.59067ZM18.3019 5.40759L18.6269 5.02766L18.6269 5.02766L18.3019 5.40759ZM18.8029 5.63656L18.8774 5.14215L18.8029 5.63656ZM20.4945 4.81478L20.2153 4.4V4.4L20.4945 4.81478ZM21.0004 4.47422L21.2797 4.88899V4.88899L21.0004 4.47422ZM22.2251 3.88872L22.2011 4.38814L22.2251 3.88872ZM23.388 4.58888L23.0703 4.97499L23.0703 4.97499L23.388 4.58888ZM24.5628 5.55545L24.2451 5.94156V5.94156L24.5628 5.55545ZM25.1918 6.16555L24.7535 6.40611L24.7535 6.40611L25.1918 6.16555ZM25.2354 7.03815L25.6954 7.23388L25.6955 7.23388L25.2354 7.03815ZM24.6702 7.70782L25.0238 8.06138L25.0248 8.06039L24.6702 7.70782ZM24.6702 7.70784L24.3166 7.35428L24.3157 7.35527L24.6702 7.70784ZM23.7208 8.8493L23.238 8.71898V8.71898L23.7208 8.8493ZM24.1207 9.93471L24.4035 9.52233L24.1207 9.93471ZM25.5838 10.1872L25.5428 10.6855L25.5838 10.1872ZM26.1338 10.2324L26.0928 10.7307L26.1338 10.2324ZM27.2822 10.4651L27.5699 10.0562L27.5699 10.0562L27.2822 10.4651ZM27.569 10.7765L27.1379 11.0297V11.0297L27.569 10.7765ZM27.5691 14.0919L28.0002 14.3451L28.0003 14.3451L27.5691 14.0919ZM27.2821 14.4034L27.5698 14.8124L27.5698 14.8124L27.2821 14.4034ZM26.1339 14.636L26.0929 14.1377L26.1339 14.636ZM25.5839 14.6813L25.6249 15.1796L25.5839 14.6813ZM24.1214 14.9336L24.404 15.3461L24.1214 14.9336ZM23.7213 16.0193L23.2386 16.1498V16.1498L23.7213 16.0193ZM24.6704 17.1603L24.3159 17.5129L24.3159 17.5129L24.6704 17.1603ZM25.2354 17.8297L24.7753 18.0255L24.7753 18.0255L25.2354 17.8297ZM25.1918 18.7026L25.6301 18.9432L25.6301 18.9432L25.1918 18.7026ZM24.563 19.3125L24.2453 18.9263L24.563 19.3125ZM23.3881 20.2791L23.7058 20.6653L23.3881 20.2791ZM22.2252 20.9793L22.2491 21.4787H22.2491L22.2252 20.9793ZM21.0005 20.3938L21.2797 19.979V19.979L21.0005 20.3938ZM20.4948 20.0534L20.2156 20.4682L20.4948 20.0534ZM18.8027 19.2315L18.8774 19.7259H18.8774L18.8027 19.2315ZM18.3021 19.4603L18.627 19.8403L18.627 19.8403L18.3021 19.4603ZM17.8161 21.2776L17.3198 21.2173L17.8161 21.2776ZM17.5431 22.3998L17.9418 22.7015H17.9418L17.5431 22.3998ZM17.2487 22.6606L16.9972 22.2284H16.9972L17.2487 22.6606ZM12.977 22.6606L13.2284 22.2284L13.2284 22.2284L12.977 22.6606ZM12.6824 22.3997L12.2837 22.7014H12.2837L12.6824 22.3997ZM12.4094 21.2778L11.9131 21.3381L12.4094 21.2778ZM11.9237 19.4608L11.5986 19.8408L11.5986 19.8408L11.9237 19.4608ZM11.4227 19.2319L11.3481 19.7263H11.3481L11.4227 19.2319ZM9.73098 20.0537L9.45176 19.6389H9.45176L9.73098 20.0537ZM9.22501 20.3943L9.50423 20.8091H9.50423L9.22501 20.3943ZM8.00035 20.9798L7.97636 21.4792H7.97637L8.00035 20.9798ZM6.83743 20.2796L6.51975 20.6657L6.83743 20.2796ZM5.66267 19.3131L5.98035 18.9269H5.98035L5.66267 19.3131ZM5.03364 18.7029L4.59531 18.9435L4.59531 18.9435L5.03364 18.7029ZM4.99009 17.8304L4.53 17.6346L4.52999 17.6346L4.99009 17.8304ZM5.55526 17.1607L5.9098 17.5132H5.9098L5.55526 17.1607ZM6.50472 16.0192L6.98744 16.1495H6.98744L6.50472 16.0192ZM6.10477 14.9338L6.38751 14.5214L6.38751 14.5214L6.10477 14.9338ZM4.64165 14.6813L4.68265 14.183L4.66218 14.1813H4.64165V14.6813ZM4.64164 14.6813L4.60064 15.1796L4.6211 15.1813H4.64164V14.6813ZM4.09173 14.6361L4.13273 14.1377L4.13273 14.1377L4.09173 14.6361ZM2.94336 14.4034L3.23108 13.9945L3.23108 13.9945L2.94336 14.4034ZM2.65652 14.092L3.08766 13.8388L3.08766 13.8387L2.65652 14.092ZM2.65658 10.7764L3.08769 11.0297L3.08769 11.0297L2.65658 10.7764ZM2.94327 10.4652L2.6555 10.0563H2.6555L2.94327 10.4652ZM4.09187 10.2324L4.13287 10.7307H4.13287L4.09187 10.2324ZM4.64172 10.1872L4.60072 9.68886H4.60072L4.64172 10.1872ZM6.1054 9.93456L5.82258 9.52223L6.1054 9.93456ZM6.50524 8.84948L6.0225 8.97969V8.97969L6.50524 8.84948ZM5.55545 7.70751L5.90999 7.35495L5.55545 7.70751ZM4.99009 7.03753L4.52996 7.23319V7.23319L4.99009 7.03753ZM5.03362 6.16522L5.47198 6.40571L5.47198 6.40571L5.03362 6.16522ZM5.66288 5.55485L5.98055 5.94096H5.98055L5.66288 5.55485ZM6.83749 4.58841L6.51981 4.2023V4.2023L6.83749 4.58841ZM8.00041 3.88825L7.97642 3.38882L8.00041 3.88825ZM9.22507 4.47375L9.50429 4.05897L9.22507 4.47375ZM9.73128 4.81452L9.45206 5.22929L9.73128 4.81452ZM11.4226 5.63618L11.497 6.1306H11.497L11.4226 5.63618ZM11.9239 5.40707L11.5988 5.0272L11.5988 5.0272L11.9239 5.40707ZM12.4094 3.59054L12.9058 3.65087V3.65087L12.4094 3.59054ZM12.6823 2.46893L12.2836 2.16727L12.2836 2.16727L12.6823 2.46893ZM12.9771 2.20781L12.7257 1.77558V1.77558L12.9771 2.20781ZM17.2486 2.20787L16.9972 2.64007L16.9972 2.64007L17.2486 2.20787ZM17.5432 2.46884L17.9419 2.16713L17.9419 2.16713L17.5432 2.46884ZM18.3036 3.47927L18.3035 3.47926L17.3287 3.70208L17.3287 3.7021L18.3036 3.47927ZM18.6269 5.02766C18.6012 5.00569 18.5432 4.93973 18.4824 4.68096C18.4216 4.42186 18.3773 4.06352 18.3125 3.53036L17.3198 3.65101C17.3817 4.16049 17.4325 4.58413 17.5089 4.90958C17.5854 5.23537 17.7068 5.55654 17.9768 5.78752L18.6269 5.02766ZM18.8774 5.14215C18.7848 5.12819 18.698 5.08852 18.6269 5.02766L17.9768 5.78752C18.1902 5.9701 18.4506 6.0891 18.7283 6.13097L18.8774 5.14215ZM20.2153 4.4C19.7698 4.69993 19.4699 4.90096 19.2341 5.02452C18.9987 5.14792 18.9108 5.14719 18.8774 5.14215L18.7283 6.13097C19.0796 6.18394 19.402 6.06558 19.6984 5.91022C19.9945 5.75502 20.348 5.51615 20.7738 5.22955L20.2153 4.4ZM20.7212 4.05944L20.2153 4.4L20.7738 5.22955L21.2797 4.88899L20.7212 4.05944ZM22.2491 3.38929C21.9635 3.37558 21.7163 3.46017 21.4825 3.58086C21.2604 3.69554 21.0092 3.86556 20.7212 4.05944L21.2797 4.88899C21.5872 4.68194 21.7828 4.55125 21.9413 4.46944C22.0881 4.39364 22.1554 4.38595 22.2011 4.38814L22.2491 3.38929ZM23.7057 4.20277C23.4376 3.98218 23.2039 3.78888 22.9938 3.65344C22.7726 3.5109 22.5347 3.40301 22.2491 3.38929L22.2011 4.38814C22.2468 4.39034 22.3131 4.40445 22.452 4.49397C22.6019 4.59059 22.784 4.73941 23.0703 4.97499L23.7057 4.20277ZM24.8805 5.16934L23.7057 4.20277L23.0703 4.97499L24.2451 5.94156L24.8805 5.16934ZM25.6301 5.92498C25.5474 5.77424 25.4367 5.65342 25.3186 5.54275C25.2031 5.43446 25.0542 5.3123 24.8805 5.16934L24.2451 5.94156C24.429 6.09282 24.5483 6.19132 24.6347 6.27234C24.7186 6.35097 24.7436 6.38809 24.7535 6.40611L25.6301 5.92498ZM25.6955 7.23388C25.8755 6.81064 25.8514 6.32819 25.6301 5.92498L24.7535 6.40611C24.8273 6.54052 24.8353 6.70133 24.7753 6.84241L25.6955 7.23388ZM25.0248 8.06039C25.1834 7.90084 25.3194 7.76447 25.4235 7.64522C25.53 7.52335 25.6281 7.39211 25.6954 7.23388L24.7753 6.84241C24.7672 6.86133 24.746 6.90076 24.6704 6.98735C24.5925 7.07656 24.4835 7.18646 24.3157 7.35526L25.0248 8.06039ZM25.0238 8.06139L25.0238 8.06138L24.3167 7.35427L24.3167 7.35428L25.0238 8.06139ZM24.2035 8.97962C24.2069 8.96692 24.2324 8.90095 24.3795 8.73091C24.5208 8.56763 24.726 8.36081 25.0247 8.0604L24.3157 7.35527C24.0276 7.64499 23.7927 7.88077 23.6232 8.07662C23.4596 8.26571 23.3038 8.47541 23.238 8.71898L24.2035 8.97962ZM24.4035 9.52233C24.2283 9.40225 24.1481 9.18463 24.2035 8.97962L23.238 8.71898C23.072 9.33402 23.3126 9.98685 23.838 10.3471L24.4035 9.52233ZM25.6248 9.68886C25.2026 9.65412 24.9122 9.62994 24.6988 9.59736C24.4765 9.56344 24.4143 9.52976 24.4035 9.52233L23.838 10.3471C24.0461 10.4898 24.3007 10.5482 24.5479 10.5859C24.8039 10.625 25.1356 10.652 25.5428 10.6855L25.6248 9.68886ZM26.1748 9.73411L25.6248 9.68886L25.5428 10.6855L26.0928 10.7307L26.1748 9.73411ZM27.5699 10.0562C27.3748 9.91888 27.1616 9.85546 26.9433 9.81679C26.7328 9.77951 26.4741 9.75873 26.1748 9.73411L26.0928 10.7307C26.4109 10.7569 26.6151 10.7742 26.7689 10.8015C26.9149 10.8273 26.9672 10.8548 26.9945 10.874L27.5699 10.0562ZM28.0002 10.5233C27.8917 10.3387 27.745 10.1794 27.5699 10.0562L26.9945 10.874C27.0529 10.9151 27.1018 10.9682 27.1379 11.0297L28.0002 10.5233ZM28.2068 11.9401C28.2068 11.6399 28.2073 11.3802 28.1874 11.1674C28.1667 10.9467 28.121 10.729 28.0002 10.5233L27.1379 11.0297C27.1548 11.0585 27.1779 11.1129 27.1917 11.2605C27.2063 11.416 27.2068 11.621 27.2068 11.9401H28.2068ZM28.2068 12.9285V11.9401H27.2068V12.9285H28.2068ZM28.0003 14.3451C28.1211 14.1393 28.1668 13.9217 28.1874 13.701C28.2073 13.4883 28.2068 13.2287 28.2068 12.9285H27.2068C27.2068 13.2476 27.2063 13.4525 27.1917 13.608C27.1779 13.7555 27.1548 13.81 27.1379 13.8387L28.0003 14.3451ZM27.5698 14.8124C27.745 14.6891 27.8918 14.5298 28.0002 14.3451L27.1379 13.8387C27.1018 13.9003 27.0528 13.9534 26.9944 13.9945L27.5698 14.8124ZM26.1749 15.1344C26.4741 15.1097 26.7329 15.089 26.9433 15.0517C27.1616 15.013 27.3747 14.9496 27.5698 14.8124L26.9944 13.9945C26.9672 14.0137 26.9148 14.0412 26.7689 14.067C26.6151 14.0943 26.411 14.1116 26.0929 14.1377L26.1749 15.1344ZM25.6249 15.1796L26.1749 15.1344L26.0929 14.1377L25.5429 14.183L25.6249 15.1796ZM24.404 15.3461C24.4149 15.3386 24.477 15.305 24.6992 15.2711C24.9126 15.2385 25.2028 15.2143 25.6249 15.1796L25.5429 14.183C25.1359 14.2165 24.8043 14.2435 24.5484 14.2825C24.3013 14.3202 24.0467 14.3786 23.8387 14.5212L24.404 15.3461ZM24.204 15.8889C24.1486 15.6838 24.2288 15.4661 24.404 15.3461L23.8387 14.5212C23.313 14.8814 23.0724 15.5345 23.2386 16.1498L24.204 15.8889ZM25.0249 16.8078C24.7263 16.5075 24.5211 16.3007 24.3799 16.1375C24.2329 15.9676 24.2074 15.9016 24.204 15.8889L23.2386 16.1498C23.3044 16.3932 23.4602 16.6028 23.6237 16.7918C23.7931 16.9876 24.0279 17.2233 24.3159 17.5129L25.0249 16.8078ZM25.6954 17.6339C25.6281 17.4758 25.53 17.3446 25.4236 17.2228C25.3194 17.1036 25.1835 16.9673 25.0249 16.8078L24.3159 17.5129C24.4837 17.6816 24.5926 17.7915 24.6705 17.8807C24.7461 17.9672 24.7672 18.0066 24.7753 18.0255L25.6954 17.6339ZM25.6301 18.9432C25.8515 18.5399 25.8756 18.0573 25.6954 17.6339L24.7753 18.0255C24.8353 18.1667 24.8273 18.3275 24.7535 18.462L25.6301 18.9432ZM24.8807 19.6986C25.0544 19.5557 25.2032 19.4335 25.3186 19.3253C25.4367 19.2147 25.5474 19.0939 25.6301 18.9432L24.7535 18.462C24.7436 18.48 24.7186 18.5171 24.6348 18.5957C24.5484 18.6767 24.4291 18.7751 24.2453 18.9263L24.8807 19.6986ZM23.7058 20.6653L24.8807 19.6986L24.2453 18.9263L23.0704 19.893L23.7058 20.6653ZM22.2491 21.4787C22.5347 21.465 22.7727 21.3571 22.9938 21.2146C23.2039 21.0792 23.4376 20.8858 23.7058 20.6653L23.0704 19.893C22.7841 20.1286 22.602 20.2774 22.4521 20.3741C22.3132 20.4636 22.2469 20.4777 22.2012 20.4799L22.2491 21.4787ZM20.7213 20.8086C21.0093 21.0025 21.2604 21.1725 21.4826 21.2872C21.7164 21.4079 21.9636 21.4924 22.2491 21.4787L22.2012 20.4799C22.1555 20.4821 22.0881 20.4744 21.9413 20.3986C21.7828 20.3168 21.5873 20.1861 21.2797 19.979L20.7213 20.8086ZM20.2156 20.4682L20.7213 20.8086L21.2797 19.979L20.7741 19.6386L20.2156 20.4682ZM18.8774 19.7259C18.9108 19.7208 18.9987 19.7201 19.2342 19.8435C19.47 19.9671 19.77 20.1682 20.2156 20.4682L20.7741 19.6386C20.3482 19.352 19.9946 19.113 19.6984 18.9578C19.4019 18.8024 19.0795 18.684 18.7281 18.7371L18.8774 19.7259ZM18.627 19.8403C18.6981 19.7795 18.7849 19.7399 18.8774 19.7259L18.7281 18.7371C18.4506 18.779 18.1904 18.8979 17.9771 19.0803L18.627 19.8403ZM18.3125 21.338C18.3773 20.8047 18.4216 20.4462 18.4825 20.1871C18.5433 19.9282 18.6013 19.8623 18.627 19.8403L17.9771 19.0803C17.707 19.3113 17.5855 19.6326 17.509 19.9584C17.4325 20.284 17.3817 20.7077 17.3198 21.2173L18.3125 21.338ZM17.9418 22.7015C18.0843 22.5132 18.1551 22.3053 18.2017 22.091C18.2465 21.8849 18.2769 21.631 18.3125 21.338L17.3198 21.2173C17.2819 21.529 17.2571 21.7286 17.2245 21.8785C17.1937 22.0204 17.1647 22.0712 17.1444 22.098L17.9418 22.7015ZM17.5001 23.0927C17.6718 22.9928 17.8219 22.8599 17.9418 22.7015L17.1444 22.098C17.1045 22.1508 17.0544 22.1951 16.9972 22.2284L17.5001 23.0927ZM16.1018 23.2962C16.397 23.2962 16.6527 23.2967 16.8628 23.2771C17.0811 23.2567 17.296 23.2115 17.5001 23.0927L16.9972 22.2284C16.9682 22.2453 16.9143 22.2679 16.7697 22.2814C16.6169 22.2957 16.4158 22.2962 16.1018 22.2962V23.2962ZM14.1236 23.2962H16.1018V22.2962H14.1236V23.2962ZM12.7256 23.0928C12.9297 23.2115 13.1446 23.2567 13.3628 23.2771C13.5728 23.2967 13.8285 23.2962 14.1236 23.2962V22.2962C13.8097 22.2962 13.6086 22.2957 13.4559 22.2814C13.3113 22.2679 13.2574 22.2453 13.2284 22.2284L12.7256 23.0928ZM12.2837 22.7014C12.4036 22.8598 12.5538 22.9929 12.7256 23.0928L13.2284 22.2284C13.1711 22.1951 13.1211 22.1508 13.0811 22.0979L12.2837 22.7014ZM11.9131 21.3381C11.9487 21.631 11.979 21.8849 12.0238 22.091C12.0704 22.3052 12.1412 22.5131 12.2837 22.7014L13.0811 22.0979C13.0608 22.0711 13.0319 22.0204 13.001 21.8785C12.9684 21.7286 12.9436 21.5291 12.9058 21.2175L11.9131 21.3381ZM11.5986 19.8408C11.6243 19.8627 11.6824 19.9287 11.7431 20.1875C11.804 20.4466 11.8483 20.8049 11.9131 21.3381L12.9058 21.2175C12.8439 20.708 12.7931 20.2843 12.7167 19.9589C12.6401 19.6331 12.5187 19.3119 12.2487 19.0809L11.5986 19.8408ZM11.3481 19.7263C11.4407 19.7402 11.5275 19.7799 11.5986 19.8408L12.2487 19.0809C12.0353 18.8983 11.7749 18.7793 11.4973 18.7375L11.3481 19.7263ZM10.0102 20.4685C10.4557 20.1685 10.7557 19.9675 10.9914 19.8439C11.2268 19.7205 11.3147 19.7213 11.3481 19.7263L11.4973 18.7375C11.1459 18.6845 10.8236 18.8028 10.5272 18.9582C10.2311 19.1134 9.87752 19.3523 9.45176 19.6389L10.0102 20.4685ZM9.50423 20.8091L10.0102 20.4685L9.45176 19.6389L8.9458 19.9795L9.50423 20.8091ZM7.97637 21.4792C8.26196 21.4929 8.50914 21.4083 8.74293 21.2876C8.96506 21.173 9.21622 21.0029 9.50423 20.8091L8.9458 19.9795C8.63822 20.1866 8.44268 20.3172 8.2842 20.3991C8.13737 20.4749 8.07002 20.4825 8.02433 20.4804L7.97637 21.4792ZM6.51975 20.6657C6.78786 20.8863 7.02156 21.0796 7.23169 21.2151C7.45284 21.3576 7.69077 21.4655 7.97636 21.4792L8.02434 20.4804C7.97865 20.4782 7.91234 20.4641 7.77346 20.3745C7.62355 20.2779 7.44143 20.1291 7.15511 19.8935L6.51975 20.6657ZM5.34499 19.6992L6.51975 20.6657L7.15511 19.8935L5.98035 18.9269L5.34499 19.6992ZM4.59531 18.9435C4.67805 19.0943 4.78878 19.2151 4.90685 19.3258C5.02237 19.434 5.17123 19.5562 5.34499 19.6992L5.98035 18.9269C5.79651 18.7757 5.67716 18.6772 5.59073 18.5962C5.50684 18.5175 5.48186 18.4804 5.47196 18.4624L4.59531 18.9435ZM4.52999 17.6346C4.34995 18.0579 4.37402 18.5403 4.59531 18.9435L5.47196 18.4624C5.3982 18.328 5.39018 18.1672 5.45019 18.0261L4.52999 17.6346ZM5.20072 16.8081C5.04205 16.9676 4.9061 17.104 4.80192 17.2233C4.69546 17.3451 4.59731 17.4764 4.53 17.6346L5.45019 18.0261C5.45824 18.0072 5.4794 17.9677 5.55505 17.8812C5.63298 17.7919 5.74193 17.682 5.9098 17.5132L5.20072 16.8081ZM6.022 15.8888C6.01858 15.9015 5.99311 15.9675 5.84599 16.1376C5.70472 16.3008 5.49946 16.5077 5.20072 16.8081L5.9098 17.5132C6.19791 17.2235 6.43279 16.9877 6.60224 16.7919C6.76584 16.6028 6.92169 16.3931 6.98744 16.1495L6.022 15.8888ZM5.82202 15.3462C5.99716 15.4662 6.07735 15.6838 6.022 15.8888L6.98744 16.1495C7.15348 15.5344 6.91292 14.8816 6.38751 14.5214L5.82202 15.3462ZM4.60065 15.1796C5.02289 15.2144 5.31327 15.2385 5.52672 15.2711C5.749 15.305 5.81118 15.3387 5.82203 15.3462L6.38751 14.5214C6.17943 14.3787 5.92478 14.3203 5.67759 14.2826C5.42157 14.2435 5.08986 14.2165 4.68265 14.183L4.60065 15.1796ZM4.64164 15.1813H4.64165V14.1813H4.64164V15.1813ZM4.05073 15.1344L4.60064 15.1796L4.68264 14.183L4.13273 14.1377L4.05073 15.1344ZM2.65564 14.8123C2.85079 14.9496 3.06395 15.013 3.28226 15.0517C3.49273 15.089 3.75149 15.1097 4.05073 15.1344L4.13273 14.1377C3.81466 14.1116 3.61045 14.0943 3.45666 14.067C3.31071 14.0412 3.25834 14.0136 3.23108 13.9945L2.65564 14.8123ZM2.22538 14.3452C2.33382 14.5298 2.48053 14.6891 2.65564 14.8123L3.23108 13.9945C3.17271 13.9534 3.12381 13.9003 3.08766 13.8388L2.22538 14.3452ZM2.0188 12.9284C2.0188 13.2286 2.01829 13.4882 2.03818 13.7011C2.05882 13.9218 2.10454 14.1394 2.22538 14.3452L3.08766 13.8387C3.07078 13.81 3.04764 13.7556 3.03384 13.608C3.01931 13.4525 3.0188 13.2475 3.0188 12.9284H2.0188ZM2.0188 11.9402V12.9284H3.0188V11.9402H2.0188ZM2.22547 10.5231C2.10458 10.7289 2.05884 10.9466 2.03819 11.1674C2.01829 11.3803 2.0188 11.6399 2.0188 11.9402H3.0188C3.0188 11.621 3.01931 11.416 3.03385 11.2605C3.04765 11.1129 3.0708 11.0584 3.08769 11.0297L2.22547 10.5231ZM2.6555 10.0563C2.4805 10.1794 2.33387 10.3386 2.22547 10.5231L3.08769 11.0297C3.12382 10.9682 3.1727 10.9151 3.23103 10.8741L2.6555 10.0563ZM4.05087 9.7341C3.75157 9.75873 3.49274 9.77951 3.28223 9.8168C3.06388 9.85548 2.85068 9.91892 2.6555 10.0563L3.23103 10.8741C3.2583 10.8549 3.31068 10.8273 3.45666 10.8015C3.61048 10.7742 3.81473 10.7569 4.13287 10.7307L4.05087 9.7341ZM4.60072 9.68886L4.05087 9.7341L4.13287 10.7307L4.68272 10.6855L4.60072 9.68886ZM5.82258 9.52223C5.81172 9.52968 5.74953 9.56338 5.52716 9.59732C5.31363 9.62991 5.02314 9.65411 4.60072 9.68886L4.68272 10.6855C5.0901 10.652 5.42195 10.625 5.67806 10.5859C5.92534 10.5481 6.18009 10.4896 6.38823 10.3469L5.82258 9.52223ZM6.0225 8.97969C6.07778 9.18464 5.99763 9.40216 5.82258 9.52223L6.38823 10.3469C6.91338 9.98666 7.15384 9.33411 6.98799 8.71926L6.0225 8.97969ZM5.20091 8.06008C5.49978 8.36062 5.70512 8.56752 5.84644 8.73088C5.99361 8.90099 6.01907 8.96699 6.0225 8.97969L6.98799 8.71926C6.92226 8.47557 6.76636 8.26578 6.6027 8.07661C6.43319 7.88067 6.19822 7.64479 5.90999 7.35495L5.20091 8.06008ZM4.52996 7.23319C4.59728 7.3915 4.69546 7.5228 4.80197 7.64473C4.90617 7.76403 5.04218 7.90046 5.20091 8.06008L5.90999 7.35495C5.74206 7.18607 5.63307 7.07613 5.5551 6.98687C5.47943 6.90024 5.45827 6.8608 5.45022 6.84187L4.52996 7.23319ZM4.59526 5.92472C4.37411 6.32782 4.35004 6.81008 4.52996 7.23319L5.45022 6.84187C5.39024 6.70083 5.39827 6.54008 5.47198 6.40571L4.59526 5.92472ZM5.3452 5.16874C5.17137 5.31176 5.02245 5.43397 4.90688 5.5423C4.78877 5.65302 4.678 5.7739 4.59526 5.92472L5.47198 6.40571C5.48188 6.38768 5.50687 6.35054 5.59078 6.27188C5.67725 6.19082 5.79664 6.09228 5.98055 5.94096L5.3452 5.16874ZM6.51981 4.2023L5.3452 5.16874L5.98055 5.94096L7.15516 4.97452L6.51981 4.2023ZM7.97642 3.38882C7.69083 3.40254 7.45289 3.51043 7.23174 3.65297C7.02162 3.78841 6.78792 3.98171 6.51981 4.2023L7.15516 4.97452C7.44148 4.73894 7.6236 4.59012 7.77351 4.4935C7.9124 4.40398 7.9787 4.38987 8.02439 4.38767L7.97642 3.38882ZM9.50429 4.05897C9.21627 3.86509 8.96512 3.69507 8.74298 3.58039C8.50919 3.4597 8.26201 3.37511 7.97642 3.38882L8.02439 4.38767C8.07008 4.38548 8.13743 4.39317 8.28426 4.46897C8.44274 4.55078 8.63828 4.68147 8.94585 4.88852L9.50429 4.05897ZM10.0105 4.39974L9.50429 4.05897L8.94585 4.88852L9.45206 5.22929L10.0105 4.39974ZM11.3481 5.14175C11.3147 5.14678 11.2268 5.1475 10.9915 5.02412C10.7558 4.90058 10.4559 4.6996 10.0105 4.39974L9.45206 5.22929C9.87771 5.51583 10.2312 5.75464 10.5272 5.90982C10.8235 6.06515 11.1458 6.1835 11.497 6.1306L11.3481 5.14175ZM11.5988 5.0272C11.5276 5.08811 11.4407 5.1278 11.3481 5.14175L11.497 6.1306C11.7749 6.08875 12.0355 5.96967 12.249 5.78695L11.5988 5.0272ZM11.9131 3.53021C11.8483 4.06325 11.804 4.42151 11.7432 4.68056C11.6825 4.93927 11.6244 5.00523 11.5988 5.0272L12.249 5.78695C12.5188 5.55598 12.6403 5.23487 12.7167 4.90915C12.7931 4.58377 12.8439 4.16023 12.9058 3.65087L11.9131 3.53021ZM12.2836 2.16727C12.1411 2.35551 12.0704 2.56336 12.0238 2.77749C11.979 2.98357 11.9487 3.23737 11.9131 3.53021L12.9058 3.65087C12.9437 3.33933 12.9684 3.13983 13.001 2.98996C13.0318 2.84814 13.0608 2.79738 13.0811 2.7706L12.2836 2.16727ZM12.7257 1.77558C12.5538 1.87554 12.4035 2.00869 12.2836 2.16727L13.081 2.7706C13.121 2.71774 13.1711 2.67336 13.2284 2.64004L12.7257 1.77558ZM14.1234 1.57227C13.8284 1.57227 13.5728 1.57176 13.3628 1.59138C13.1447 1.61176 12.9298 1.65692 12.7257 1.77558L13.2284 2.64004C13.2575 2.62315 13.3114 2.60054 13.4559 2.58704C13.6086 2.57277 13.8096 2.57227 14.1234 2.57227V1.57227ZM16.102 1.57227H14.1234V2.57227H16.102V1.57227ZM17.5 1.77567C17.2959 1.65696 17.081 1.61178 16.8627 1.59138C16.6527 1.57176 16.3971 1.57227 16.102 1.57227V2.57227C16.4159 2.57227 16.617 2.57277 16.7697 2.58705C16.9142 2.60055 16.9681 2.62318 16.9972 2.64007L17.5 1.77567ZM17.9419 2.16713C17.822 2.00866 17.6717 1.87559 17.5 1.77567L16.9972 2.64007C17.0544 2.67337 17.1045 2.71773 17.1445 2.77055L17.9419 2.16713ZM18.3125 3.53035C18.2769 3.23743 18.2465 2.98358 18.2017 2.77746C18.1551 2.56329 18.0843 2.35539 17.9419 2.16713L17.1445 2.77055C17.1647 2.79734 17.1937 2.8481 17.2245 2.98995C17.2571 3.13986 17.2819 3.33939 17.3198 3.651L18.3125 3.53035ZM19.6504 12.4342C19.6504 14.3604 17.7145 16.079 15.1128 16.079V17.079C18.0754 17.079 20.6504 15.0863 20.6504 12.4342H19.6504ZM15.1128 8.78945C17.7145 8.78945 19.6504 10.5081 19.6504 12.4342H20.6504C20.6504 9.78218 18.0754 7.78945 15.1128 7.78945V8.78945ZM10.5752 12.4342C10.5752 10.5081 12.5111 8.78945 15.1128 8.78945V7.78945C12.1501 7.78945 9.57518 9.78218 9.57518 12.4342H10.5752ZM15.1128 16.079C12.5111 16.079 10.5752 14.3604 10.5752 12.4342H9.57518C9.57518 15.0863 12.1501 17.079 15.1128 17.079V16.079Z" fill="black"/>
</g>
</svg>
