<svg width="25" height="24" viewBox="0 0 25 24" fill="none" xmlns="http://www.w3.org/2000/svg">
<g id="View_light">
<path id="Ellipse 65_light" d="M16.1666 12C16.1666 13.914 14.5444 15.5 12.4999 15.5C10.4554 15.5 8.83325 13.914 8.83325 12C8.83325 10.086 10.4554 8.5 12.4999 8.5C14.5444 8.5 16.1666 10.086 16.1666 12Z" stroke="#222222"/>
<path id="Ellipse 66_light" d="M21.006 10.9073C21.4202 11.3883 21.6272 11.6288 21.6272 12C21.6272 12.3712 21.4202 12.6117 21.006 13.0927C19.516 14.8231 16.2675 18 12.5 18C8.73245 18 5.48398 14.8231 3.994 13.0927C3.57983 12.6117 3.37275 12.3712 3.37275 12C3.37275 11.6288 3.57983 11.3883 3.994 10.9073C5.48398 9.17687 8.73245 6 12.5 6C16.2675 6 19.516 9.17687 21.006 10.9073Z" stroke="#222222"/>
</g>
</svg>
